<?xml version="1.0" encoding="iso-8859-1"?>
<!-- Uploaded to: SVG Repo, www.svgrepo.com, Generator: SVG Repo Mixer Tools -->
<svg fill="#000000" height="800px" width="800px" version="1.1" id="Layer_1" xmlns="http://www.w3.org/2000/svg" xmlns:xlink="http://www.w3.org/1999/xlink" 
	 viewBox="0 0 512 512" xml:space="preserve">
<g>
	<g>
		<path d="M481.583,251.572H30.417H0V401.01c0,23.377,19.019,42.396,42.396,42.396h427.21c23.377,0,42.395-19.019,42.395-42.396
			V251.572H481.583z M165.933,312.41H44.599v-30.417h121.334V312.41z M316.668,312.41H195.333v-30.417h121.334V312.41z
			 M467.402,312.41H346.067v-30.417h121.335V312.41z"/>
	</g>
</g>
<g>
	<g>
		<path d="M469.605,68.595H42.396C19.019,68.595,0,87.614,0,110.99v29.825h512V110.99C512,87.614,492.981,68.595,469.605,68.595z"/>
	</g>
</g>
<g>
	<g>
		<polygon points="0,171.233 0,181.372 0,221.155 30.417,221.155 481.583,221.155 512,221.155 512,181.372 512,171.233 		"/>
	</g>
</g>
</svg>